<svg width="134" height="177" xmlns="http://www.w3.org/2000/svg" xmlns:xlink="http://www.w3.org/1999/xlink" xml:space="preserve" overflow="hidden"><defs><clipPath id="clip0"><rect x="257" y="304" width="134" height="177"/></clipPath></defs><g clip-path="url(#clip0)" transform="translate(-257 -304)"><path d="M0 0C0-12.2197 9.29385-21.2586 20.7502-21.2586 32.2079-21.2586 41.3743-12.2197 41.3743 0.128768 41.3743 12.4772 32.2079 21.5148 20.7502 21.5148 9.29385 21.5148 0 12.4772 0 0.128768ZM-16.6748 0.254881C-16.6748 18.0766-3.56302 37.044 20.7502 37.044 45.0634 37.044 58.1751 18.0766 58.1751 0.128768 58.1751-17.9492 45.0634-36.9165 20.7502-36.9165-3.56302-36.9165-16.6748-17.9492-16.6748 0.128768Z" fill="#07AAE2" transform="matrix(1 0 0 -1.00421 517.721 421.419)"/><path d="M0 0 52.828 0 52.828-16.6748 18.9674-16.6748 18.9674-39.8437 52.1908-39.8437 52.1908-56.5184 18.9674-56.5184 18.9674-79.305 52.828-79.305 52.828-95.9811 0-95.9811Z" fill="#07AAE2" transform="matrix(1 0 0 -1.00421 585.724 360.059)"/><path d="M0 0C0 10.0558-7.25746 21.5135-21.3861 21.5135-27.4952 21.5135-32.715 19.0948-36.5329 15.1481-40.226 11.3302-42.5173 5.85561-42.5173-0.253553-42.5173-6.23661-40.226-11.5864-36.4081-15.4043-32.5889-19.2209-27.2417-21.6396-21.26-21.6396-8.5292-21.6396 0-11.5864 0-0.128768ZM-58.43 36.9165-42.7735 36.9165-42.7735 24.6969C-37.8059 31.6968-29.6604 37.0426-18.0753 37.0426 6.36538 37.0426 16.6774 16.2924 16.6774-0.635874 16.6774-20.4966 2.54748-37.1714-17.9492-37.1714-31.5693-37.1714-38.9529-30.1702-41.7526-25.7151L-41.7526-35.0062-41.7526-59.4496-58.43-59.4496Z" fill="#07AAE2" transform="matrix(1 0 0 -1.00421 778.938 421.29)"/><path d="M0 0C0-11.8387 8.53186-21.5122 21.3874-21.5122 27.4992-21.5122 32.9725-19.0948 36.9178-15.1481 40.8632-11.2015 43.1558-5.72685 42.8996 0.379666 42.8996 6.49282 40.4809 11.7086 36.663 15.4043 32.8451 19.2209 27.4992 21.5135 21.5135 21.5135 7.89466 21.5135 0 11.0754 0 0.12744ZM58.5575-35.0062 42.646-35.0062 42.646-24.9504C39.5901-30.1702 32.9725-37.1714 18.7151-37.1714-2.79838-37.1714-16.6761-20.3679-16.6761 0-16.6761 22.6591-0.508433 37.0426 18.4603 37.0426 31.8255 37.0426 39.3379 29.9153 41.8814 25.8412L41.8814 36.0244 41.8814 60.9748 58.5575 60.9748Z" fill="#07AAE2" transform="matrix(1 0 0 -1.00421 895.593 421.29)"/><path d="M0 0-48.4764 0-48.4764-15.2769-20.4927-15.2769C-21.8905-20.8763-25.2013-25.9699-30.1662-29.5329-35.0036-33.0986-41.3663-35.2625-48.876-35.2625-63.8967-35.2625-79.4285-24.0597-79.4285-2.79838-79.4285 17.6943-64.0255 29.152-48.876 29.152-41.6212 29.152-35.6381 26.7332-30.802 22.9167-28.001 20.7489-25.7111 18.0753-23.8008 15.1495L-2.4134 15.1495C-8.52522 32.334-27.2377 45.8267-48.495 45.8267-75.9916 45.8267-98.3971 25.3327-98.3971-2.79838-98.3971-30.1702-76.8836-51.9359-48.7512-51.9359-31.8202-51.9359-12.9843-43.2819-4.20155-23.6787-0.637201-15.784 0.253553-6.23661 0 0" fill="#07AAE2" transform="matrix(1 0 0 -1.00421 493.604 406.078)"/><path d="M809.518 189.447 826.195 189.447 826.195 121.123 809.518 121.123Z" fill="#07AAE2" transform="matrix(1 0 0 -1.00421 158.562 578.076)"/><path d="M0 0C-5.25426 0-9.51421-4.2573-9.51421-9.51554-9.51421-14.7724-5.25426-19.0298 0-19.0298 5.25558-19.0298 9.51554-14.7724 9.51554-9.51554 9.51554-4.2573 5.25558 0 0 0" fill="#07AAE2" transform="matrix(1 0 0 -1.00421 976.418 360.059)"/><path d="M0 0-19.57 0-35.5572-22.3472-51.5443 0-71.1143 0-45.5108-36.2607-71.1143-72.0489-50.8726-72.0489-35.5572-50.3588-20.2418-72.0489 0-72.0489-25.6035-36.2607Z" fill="#07AAE2" transform="matrix(1 0 0 -1.00421 713.409 384.091)"/><path d="M0 0C12.2223 0.12744 19.2236-9.16508 19.8594-15.7867L-19.7293-15.7867C-19.0935-8.91152-12.3458 0 0 0M16.8354-36.7864C13.6215-42.2942 8.22122-45.828 0.256208-45.828-9.29119-45.9542-19.2209-39.7176-19.9842-28.5161L3.7794-28.5161 36.282-28.5161C37.6812-16.2938 34.4991-5.34585 25.9713 3.43558 19.4784 10.1833 10.3134 14.1299-0.124785 14.1299-21.2573 14.1299-36.7878-3.30946-36.7878-23.1676-36.7878-42.646-21.3834-60.0854 0.130095-60.0854 7.38622-60.0854 14.2587-58.049 20.1143-53.9749 23.6229-51.6093 26.8009-48.5454 29.5051-44.8138Z" fill="#07AAE2" transform="matrix(1 0 0 -1.00421 837.264 398.28)"/><path d="M0 0C-4.78697 17.2562 2.7559 35.5611 18.3116 44.4408 18.3116 18.893 41.9026 21.8215 41.9026 10.4528 41.9026-1.85452 25.1164-7.59331 12.7122 7.6265 12.7122-23.745 62.313-21.4339 62.313 10.4528 62.313 34.5655 33.7252 47.0639 22.7056 72.0383-2.29525 56.7308-23.7742 34.7049-20.255 4.96088-11.1802-71.7635 97.7931-62.8413 97.7931 7.28268 97.7931 57.226 50.6044 67.2181 39.237 126.133 12.1971 68.5934 76.8412 53.7824 76.8412 10.4528 76.8412-10.8696 59.6872-28.5679 37.8298-28.6714 20.3639-28.763 4.74317-17.1168 0 0" fill="#07AAE2" transform="matrix(1 0 0 -1.00421 277.634 430.67)"/></g></svg>